PathFileType	3	(X/Y/Z)	D:\Jess\PFP\Labelled\PA26\20251029\SRRun01.trc
DataRate	CameraRate	NumFrames	NumMarkers	Units	OrigDataRate	OrigDataStartFrame	OrigNumFrames
250.0	250.0	6	37	mm	250.0	35000	2501
Frame#	Time	C7			T10			CLAV			LSHO			RSHO			LASIS			RASIS			LPSIS			RPSIS			LILCR			RILCR			LGTR			LTHI			LLTHI			LLEP			LMEP			LPSH			LLSH			LDSH			LLMAL			LMMAL			LTOE			L5TH			LHEE			RGTR			RTHI			RLTHI			RLEP			RMEP			RPSH			RLSH			RDSH			RLMAL			RMMAL			RTOE			R5TH			RHEE			
		X1	Y1	Z1	X2	Y2	Z2	X3	Y3	Z3	X4	Y4	Z4	X5	Y5	Z5	X6	Y6	Z6	X7	Y7	Z7	X8	Y8	Z8	X9	Y9	Z9	X10	Y10	Z10	X11	Y11	Z11	X12	Y12	Z12	X13	Y13	Z13	X14	Y14	Z14	X15	Y15	Z15	X16	Y16	Z16	X17	Y17	Z17	X18	Y18	Z18	X19	Y19	Z19	X20	Y20	Z20	X21	Y21	Z21	X22	Y22	Z22	X23	Y23	Z23	X24	Y24	Z24	X25	Y25	Z25	X26	Y26	Z26	X27	Y27	Z27	X28	Y28	Z28	X29	Y29	Z29	X30	Y30	Z30	X31	Y31	Z31	X32	Y32	Z32	X33	Y33	Z33	X34	Y34	Z34	X35	Y35	Z35	X36	Y36	Z36	X37	Y37	Z37	

1	139.996	1078.59104494708	1391.484345352024	-363.8314452745144	1022.002774248037	1196.838184072128	-358.5350066765267	1220.096558497665	1315.21032560556	-330.9215791454349	1167.494987457861	1366.325387115196	-494.025882929173	1098.2689782308	1383.887440108201	-200.3130560479936	1144.325324899568	940.3431614562978	-452.1282029143059	1138.019849605744	938.3339008155615	-218.1508343706865	972.1532841742035	1015.54261454615	-363.4880315310189	968.6453044041552	1009.761412745053	-315.2429888383917	1104.463144381973	999.1080676385279	-495.3586878006711	1074.375289645298	1000.77555500688	-182.5006673276469	1074.792542675685	845.8768363653816	-513.1679981387038	1140.002114503863	706.7241812236597	-423.0504355569971	1015.784414751118	591.1835420154578	-474.8673736466945	997.4713045302636	456.684732885299	-457.1738261341841	nan	nan	nan	1024.109990766594	374.1261586963745	-397.9995498755795	908.5996462733519	279.5771688227872	-451.4163846971127	895.3108823121142	177.5031617716382	-389.8188887868797	814.6014275799165	118.5415068467597	-420.8020696701844	nan	nan	nan	933.5209131777588	58.05657449279285	-382.2338957829267	888.696398248181	37.23822439342966	-427.4276534652623	727.5033984887493	109.630580663173	-379.2467174227342	1055.63944927294	874.656028721629	-157.0004891828932	1218.402245373214	760.0058553726489	-246.1838088187928	1185.770776592982	617.9276608444343	-191.8534253554259	1244.177929575025	502.7018766247155	-210.4129962610562	nan	nan	nan	1226.944765150708	418.8955188249438	-265.176730207127	1080.026786317813	421.0638694778984	-207.1599688478862	1034.473560236877	314.1862283565504	-250.1689125739441	919.6043682951149	293.3726885059046	-230.0845662518667	nan	nan	nan	982.8903582021649	163.6360148947379	-240.5394110669838	934.5041286206616	182.5084936128317	-202.3880178833591	857.2233930642012	326.7842177455076	-286.1958153455161	
2	140	1078.882194824766	1395.592107294342	-364.4415152670423	1022.884210013422	1200.700755379216	-360.1656380546229	1220.05393390515	1319.843253265099	-329.5309055808285	1169.493241767373	1370.661158203671	-493.0801436196854	1096.473776649386	1388.044578360838	-200.8299466476723	1145.674001426117	943.2490101227022	-452.1200136400429	1139.001273966759	943.3331498942109	-218.3771178787076	973.5879124370485	1019.471121898273	-364.2468967066794	969.89378709963	1013.99029166223	-315.9919437600155	1106.80592118835	1002.555751952641	-494.9322189111887	1075.158249289365	1006.061100419811	-182.8884286819365	1074.559796028535	848.554843596682	-512.7910485136144	1136.286461609466	708.3800409232542	-422.0440205480849	1009.368832878664	595.9085356468261	-474.2149721312947	988.0130239651772	462.0537073555678	-456.705549478776	nan	nan	nan	1013.64033147523	379.0445537916127	-397.8052567194684	898.4010361393487	284.6065269618045	-451.2080537978524	886.3387703737334	181.8843926266382	-390.1106695292586	805.8193713172757	122.4668352775164	-420.9026442456533	nan	nan	nan	923.2874961061808	57.6805029773811	-382.5829038250688	877.5379571212902	38.06220705886776	-427.1724167963867	719.2864992254753	115.5259331378581	-379.1060223542744	1057.240922559317	880.3624082610658	-156.7562224055668	1219.348086839625	766.3973706569326	-247.076394635319	1188.113793194474	623.5347003543598	-192.7559264411929	1246.54974268357	507.5037209175247	-212.0042423966811	nan	nan	nan	1231.595290283303	423.3445391073092	-267.3362709285261	1086.379211424518	418.5640468917123	-207.8898021625847	1045.008738958363	310.91228837327	-251.1555249637615	931.8466717182143	285.3038540090255	-230.3696037500611	nan	nan	nan	1000.551409545143	159.2941497278024	-241.7723554329602	951.8821900330756	175.7130759068096	-203.2323215855613	867.9845115666822	315.8076306365253	-286.020681039059	
3	140.004	1079.175676287037	1399.671198832937	-365.0453955533912	1023.752911315598	1204.537861565553	-361.7853364536373	1220.010195297839	1324.440425440835	-328.1542206457284	1171.479811883445	1374.961370467593	-492.1380816390666	1094.698155181133	1392.168753336134	-201.3420208971199	1147.01499002119	946.1310393500581	-452.1115038217443	1139.982688306718	948.3035757661692	-218.6036906432591	975.0153873249791	1023.364852070316	-364.9939041431938	971.1360615224514	1018.183400760894	-316.7302451800105	1109.122804328248	1005.981631223522	-494.5043568239841	1075.932976628368	1011.327086042884	-183.2785356353484	1074.331316437465	851.2090233708349	-512.4106341867373	1132.607882293515	710.0150147443686	-421.0432321513885	1003.005872988257	600.5953294547749	-473.5696239905075	978.6086527028092	467.3987352032948	-456.2441348790873	nan	nan	nan	1003.252761323483	383.9489565429149	-397.6219246115452	888.2959886908789	289.6071292609802	-451.0091245845764	877.4997351569268	186.2294417100097	-390.4191314907336	797.1795003995812	126.3471964541043	-421.0091461778289	nan	nan	nan	913.1808122252762	57.27611621584469	-382.9349773498953	866.5138517346842	38.86032729315698	-426.9245373415595	711.2236772785817	121.3835280111048	-378.9692958447339	1058.836314672176	886.0301484398108	-156.5147607887858	1220.29079792237	772.759192621147	-247.9624222818906	1190.433621167493	629.1086946369671	-193.6642090957718	1248.887426604242	512.2683719759993	-213.5847705716791	nan	nan	nan	1236.191915268063	427.7556692980618	-269.4779680182298	1092.669052860928	416.0809402065988	-208.6081962739442	1055.450894574024	307.6571022504306	-252.1316319679431	943.9871668577555	277.2843749320455	-230.6467308156911	nan	nan	nan	1018.065460763639	154.9811163086833	-242.9985476328648	969.1159976323715	168.9577208586597	-204.0713139282259	878.6532214303412	304.9103560038108	-285.8360553264106	
4	140.008	1079.47646879567	1403.709440396786	-365.6395150604461	1024.61031994664	1208.341181513919	-363.3886685966849	1219.964536782858	1328.985344021167	-326.8004226029656	1173.447743364864	1379.210569389446	-491.194645524386	1092.958565861409	1396.243297463629	-201.8525253222131	1148.345951260157	948.9758726464312	-452.09861993839	1140.971507793856	953.2285497133024	-218.8298151945918	976.4409379699072	1027.213032558167	-365.7207418981254	972.3775732800852	1022.328394090507	-317.4511343702676	1111.403916977077	1009.375319606721	-494.070989425277	1076.701444462122	1016.566014362653	-183.6708277184318	1074.110651169342	853.8350470679228	-512.0268514161961	1128.986691405373	711.6268487035915	-420.0620808125722	996.72777562561	605.2425201126124	-472.9367855881524	969.2924051840587	472.7280185458833	-455.7934433500994	nan	nan	nan	992.9996965175397	388.8521339400382	-397.4562163036122	878.3319409476187	294.5925341486021	-450.8212836042648	868.8510415568612	190.5458261194506	-390.7534338771144	788.7355089006286	130.1979200861459	-421.1165881931402	nan	nan	nan	903.2163854103607	56.86175780153052	-383.2896164539839	855.6476926800912	39.66566280896701	-426.6850368738385	703.3902018556782	127.2349201341232	-378.8231381647923	1060.432809278649	891.6503223856691	-156.2765794287187	1221.231285619237	779.0655809945486	-248.8446539563568	1192.695522323651	634.6271434885674	-194.5814674334934	1251.144715038564	516.9587351548832	-215.1416724420321	nan	nan	nan	1240.694127597551	432.0997597050335	-271.5800983886243	1098.896562812425	413.6103198366526	-209.3058012528466	1065.804193551289	304.4384963980832	-253.0970076543191	956.0658787607961	269.3417695960695	-230.9225202298764	nan	nan	nan	1035.432622063911	150.7641275145048	-244.2373145704747	986.2267045784167	162.3054341166243	-204.9250238058979	889.288706887187	294.1193501007889	-285.6435827759709	
5	140.012	1079.789263411296	1407.696515559747	-366.2205873307749	1025.457965492204	1212.103810992329	-364.9705587424391	1219.916089549809	1333.463644696819	-325.4774868286382	1175.390761069483	1383.395649526508	-490.2443488797731	1091.270228438561	1400.253792495617	-202.3651084473006	1149.664948779618	951.7712709485006	-452.0771693592426	1141.975144648925	958.0932919425709	-219.0546030991294	977.8703581752563	1031.007273644906	-366.419936783331	973.624247961863	1026.415306288622	-318.1486504161805	1113.641105935684	1012.727592568356	-493.6283908607176	1077.466079496375	1021.771193708747	-184.0652095204298	1073.901193613677	856.4299930266511	-511.6400007361908	1125.439964335573	713.2147145370975	-419.1138647045082	990.5627884116545	609.851709383665	-472.3212469342358	960.0944781003569	478.052378100058	-455.3568599497721	nan	nan	nan	982.9285090460482	393.7676439016751	-397.3142577910747	868.5499676115954	299.5786990064657	-450.645493865331	860.4401526253379	194.8436269576584	-391.1215497463421	780.5304193778547	134.0380327897321	-421.2195168429357	nan	nan	nan	893.3997051878127	56.45907145752075	-383.6468501895725	844.9525884898734	40.51415365304355	-426.4546255485066	695.850709935225	133.1146115705372	-378.6535975137367	1062.037917785109	897.2171000312828	-156.042045461346	1222.171447305047	785.2935432178867	-249.7258780511566	1194.8650949148	640.0694324764381	-195.5110406987601	1253.277818527858	521.5401343927291	-216.6626411608666	nan	nan	nan	1245.065623085993	436.350033294947	-273.6219847841988	1105.066976970904	411.1468216004263	-209.9740515194212	1076.079828199028	301.2732505923409	-254.0522732776059	968.1306906268258	261.5008528410049	-231.2043725479102	nan	nan	nan	1052.663903236852	146.7095542367418	-245.5088036306933	1003.246390611444	155.8178840224458	-205.8140679714627	899.9575722423109	283.4560525022221	-285.4457911732778	
6	140.016	1080.118124778347	1411.623477131996	-366.7856208866496	1026.297279085946	1215.819635837829	-366.5260747238384	1219.863982556529	1337.862697981767	-324.1923731785486	1177.303037086448	1387.505528728813	-489.281737930396	1089.646806464077	1404.187808899518	-202.8835746881523	1150.970211525182	954.5060273390116	-452.0429965267084	1143.000403572788	962.8842727224799	-219.2769683430395	979.3094171382838	1034.741159481898	-367.0850707047107	974.8819443499274	1030.436118547999	-318.8177761615329	1115.827897935847	1016.029971364558	-493.1735351319338	1078.229399295509	1026.935607281955	-184.4615136293768	1073.706062724898	858.9919720235578	-511.250719386419	1121.981478132138	714.7790090071413	-418.2108318467988	984.5352592381371	614.426491832859	-471.7270108541789	951.0419563344568	483.3835508159581	-454.9371843882728	nan	nan	nan	973.0817129985431	398.7078826764108	-397.2013180616448	858.984869655753	304.5822481018942	-450.4818778672832	852.3034930806367	199.1342942435494	-391.5295739537776	772.5953246829588	137.8890648624903	-421.3121271308921	nan	nan	nan	883.7271318552123	56.09292369985285	-384.0071214718325	834.431943190611	41.44348916868175	-426.2336347118912	688.6567751748917	139.0574986145508	-378.4467792646947	1063.658747727859	902.7267273521898	-155.8114534017215	1223.113822062239	791.4221274321579	-250.6085952067123	1196.909162446904	645.4162679210488	-196.455937960051	1255.2469714042	525.9807017555403	-218.1361056965885	nan	nan	nan	1249.275166066042	440.4822904350517	-275.5843974703497	1111.189281539705	408.6847175704331	-210.605476138388	1086.293713564886	298.177218276967	-254.9987202740136	980.2331902362698	253.7846520833694	-231.5002793148951	nan	nan	nan	1069.777497432927	142.8813357696031	-246.8328797216464	1020.213558292472	149.5546439443767	-206.7586333447302	910.7292783845389	272.9378459626304	-285.2462235458008	
